<mxfile host="app.diagrams.net" modified="2024-06-24T05:46:25.981Z" agent="Mozilla/5.0 (Windows NT 10.0; Win64; x64) AppleWebKit/537.36 (KHTML, like Gecko) Chrome/126.0.0.0 Safari/537.36" etag="eXpf8TWLUzaxceZt8KIV" version="24.6.2" type="github" pages="2">
  <diagram name="페이지-1" id="R2ysIsO2yRYIYrhWCdYy">
    <mxGraphModel dx="2016" dy="1233" grid="1" gridSize="10" guides="1" tooltips="1" connect="1" arrows="1" fold="1" page="1" pageScale="1" pageWidth="850" pageHeight="1100" math="0" shadow="0">
      <root>
        <mxCell id="0" />
        <mxCell id="1" parent="0" />
        <mxCell id="bbzpcZMjXYRwJVZqYpki-1" value="참관객" style="whiteSpace=wrap;html=1;align=center;" parent="1" vertex="1">
          <mxGeometry x="660" y="140" width="100" height="40" as="geometry" />
        </mxCell>
        <mxCell id="bbzpcZMjXYRwJVZqYpki-2" value="이름" style="ellipse;whiteSpace=wrap;html=1;align=center;" parent="1" vertex="1">
          <mxGeometry x="640" y="30" width="100" height="40" as="geometry" />
        </mxCell>
        <mxCell id="bbzpcZMjXYRwJVZqYpki-3" value="" style="endArrow=none;html=1;rounded=0;" parent="1" source="bbzpcZMjXYRwJVZqYpki-2" target="bbzpcZMjXYRwJVZqYpki-1" edge="1">
          <mxGeometry relative="1" as="geometry">
            <mxPoint x="630" y="160" as="sourcePoint" />
            <mxPoint x="790" y="160" as="targetPoint" />
          </mxGeometry>
        </mxCell>
        <mxCell id="bbzpcZMjXYRwJVZqYpki-4" value="휴대폰번호" style="ellipse;whiteSpace=wrap;html=1;align=center;fontStyle=4;" parent="1" vertex="1">
          <mxGeometry x="750" y="40" width="100" height="40" as="geometry" />
        </mxCell>
        <mxCell id="bbzpcZMjXYRwJVZqYpki-5" value="" style="endArrow=none;html=1;rounded=0;" parent="1" source="bbzpcZMjXYRwJVZqYpki-4" target="bbzpcZMjXYRwJVZqYpki-1" edge="1">
          <mxGeometry relative="1" as="geometry">
            <mxPoint x="683" y="119" as="sourcePoint" />
            <mxPoint x="706" y="150" as="targetPoint" />
          </mxGeometry>
        </mxCell>
        <mxCell id="bbzpcZMjXYRwJVZqYpki-6" value="이메일" style="ellipse;whiteSpace=wrap;html=1;align=center;fontStyle=4;" parent="1" vertex="1">
          <mxGeometry x="835" y="70" width="95" height="40" as="geometry" />
        </mxCell>
        <mxCell id="bbzpcZMjXYRwJVZqYpki-7" value="참관객 코드" style="ellipse;whiteSpace=wrap;html=1;align=center;fontStyle=4;" parent="1" vertex="1">
          <mxGeometry x="535" y="50" width="100" height="40" as="geometry" />
        </mxCell>
        <mxCell id="bbzpcZMjXYRwJVZqYpki-8" value="" style="endArrow=none;html=1;rounded=0;" parent="1" source="bbzpcZMjXYRwJVZqYpki-6" target="bbzpcZMjXYRwJVZqYpki-1" edge="1">
          <mxGeometry relative="1" as="geometry">
            <mxPoint x="683" y="119" as="sourcePoint" />
            <mxPoint x="706" y="150" as="targetPoint" />
          </mxGeometry>
        </mxCell>
        <mxCell id="bbzpcZMjXYRwJVZqYpki-9" value="" style="endArrow=none;html=1;rounded=0;" parent="1" source="bbzpcZMjXYRwJVZqYpki-7" target="bbzpcZMjXYRwJVZqYpki-1" edge="1">
          <mxGeometry relative="1" as="geometry">
            <mxPoint x="810" y="160" as="sourcePoint" />
            <mxPoint x="770" y="164" as="targetPoint" />
          </mxGeometry>
        </mxCell>
        <mxCell id="bbzpcZMjXYRwJVZqYpki-10" value="거주지역" style="ellipse;whiteSpace=wrap;html=1;align=center;" parent="1" vertex="1">
          <mxGeometry x="830" y="230" width="100" height="40" as="geometry" />
        </mxCell>
        <mxCell id="bbzpcZMjXYRwJVZqYpki-11" value="" style="endArrow=none;html=1;rounded=0;" parent="1" source="bbzpcZMjXYRwJVZqYpki-10" target="bbzpcZMjXYRwJVZqYpki-1" edge="1">
          <mxGeometry relative="1" as="geometry">
            <mxPoint x="683" y="119" as="sourcePoint" />
            <mxPoint x="706" y="150" as="targetPoint" />
          </mxGeometry>
        </mxCell>
        <mxCell id="bbzpcZMjXYRwJVZqYpki-12" value="기본 주소" style="ellipse;whiteSpace=wrap;html=1;align=center;" parent="1" vertex="1">
          <mxGeometry x="940" y="260" width="100" height="40" as="geometry" />
        </mxCell>
        <mxCell id="bbzpcZMjXYRwJVZqYpki-13" value="상세 주소" style="ellipse;whiteSpace=wrap;html=1;align=center;" parent="1" vertex="1">
          <mxGeometry x="960" y="212" width="100" height="40" as="geometry" />
        </mxCell>
        <mxCell id="bbzpcZMjXYRwJVZqYpki-14" value="" style="endArrow=none;html=1;rounded=0;entryX=1;entryY=0.5;entryDx=0;entryDy=0;" parent="1" source="bbzpcZMjXYRwJVZqYpki-12" target="bbzpcZMjXYRwJVZqYpki-10" edge="1">
          <mxGeometry relative="1" as="geometry">
            <mxPoint x="274" y="125" as="sourcePoint" />
            <mxPoint x="310" y="140" as="targetPoint" />
          </mxGeometry>
        </mxCell>
        <mxCell id="bbzpcZMjXYRwJVZqYpki-15" value="" style="endArrow=none;html=1;rounded=0;entryX=1;entryY=0.5;entryDx=0;entryDy=0;" parent="1" source="bbzpcZMjXYRwJVZqYpki-13" target="bbzpcZMjXYRwJVZqYpki-10" edge="1">
          <mxGeometry relative="1" as="geometry">
            <mxPoint x="293" y="131" as="sourcePoint" />
            <mxPoint x="328" y="139" as="targetPoint" />
          </mxGeometry>
        </mxCell>
        <mxCell id="bbzpcZMjXYRwJVZqYpki-16" value="소속" style="ellipse;whiteSpace=wrap;html=1;align=center;" parent="1" vertex="1">
          <mxGeometry x="600" y="240" width="100" height="40" as="geometry" />
        </mxCell>
        <mxCell id="bbzpcZMjXYRwJVZqYpki-17" value="" style="endArrow=none;html=1;rounded=0;" parent="1" source="bbzpcZMjXYRwJVZqYpki-16" target="bbzpcZMjXYRwJVZqYpki-1" edge="1">
          <mxGeometry relative="1" as="geometry">
            <mxPoint x="599" y="163" as="sourcePoint" />
            <mxPoint x="670" y="167" as="targetPoint" />
          </mxGeometry>
        </mxCell>
        <mxCell id="bbzpcZMjXYRwJVZqYpki-18" value="성별" style="ellipse;whiteSpace=wrap;html=1;align=center;" parent="1" vertex="1">
          <mxGeometry x="860" y="170" width="100" height="40" as="geometry" />
        </mxCell>
        <mxCell id="bbzpcZMjXYRwJVZqYpki-19" value="" style="endArrow=none;html=1;rounded=0;" parent="1" source="bbzpcZMjXYRwJVZqYpki-18" target="bbzpcZMjXYRwJVZqYpki-1" edge="1">
          <mxGeometry relative="1" as="geometry">
            <mxPoint x="617" y="207" as="sourcePoint" />
            <mxPoint x="670" y="188" as="targetPoint" />
          </mxGeometry>
        </mxCell>
        <mxCell id="bbzpcZMjXYRwJVZqYpki-20" value="약관" style="whiteSpace=wrap;html=1;align=center;" parent="1" vertex="1">
          <mxGeometry x="138" y="140" width="100" height="40" as="geometry" />
        </mxCell>
        <mxCell id="bbzpcZMjXYRwJVZqYpki-22" value="" style="endArrow=none;html=1;rounded=0;" parent="1" source="8LDzbmYmtfxuhefucSMn-5" target="bbzpcZMjXYRwJVZqYpki-20" edge="1">
          <mxGeometry relative="1" as="geometry">
            <mxPoint x="118" y="219" as="sourcePoint" />
            <mxPoint x="228" y="279" as="targetPoint" />
          </mxGeometry>
        </mxCell>
        <mxCell id="bbzpcZMjXYRwJVZqYpki-23" value="약관 코드" style="ellipse;whiteSpace=wrap;html=1;align=center;fontStyle=4;" parent="1" vertex="1">
          <mxGeometry x="150" y="80" width="100" height="40" as="geometry" />
        </mxCell>
        <mxCell id="bbzpcZMjXYRwJVZqYpki-24" value="" style="endArrow=none;html=1;rounded=0;" parent="1" source="bbzpcZMjXYRwJVZqYpki-23" target="bbzpcZMjXYRwJVZqYpki-20" edge="1">
          <mxGeometry relative="1" as="geometry">
            <mxPoint x="30.992737192036657" y="258.78922491689127" as="sourcePoint" />
            <mxPoint x="238" y="280" as="targetPoint" />
          </mxGeometry>
        </mxCell>
        <mxCell id="bbzpcZMjXYRwJVZqYpki-38" value="부서" style="ellipse;whiteSpace=wrap;html=1;align=center;" parent="1" vertex="1">
          <mxGeometry x="520" y="212" width="100" height="40" as="geometry" />
        </mxCell>
        <mxCell id="bbzpcZMjXYRwJVZqYpki-40" value="" style="endArrow=none;html=1;rounded=0;" parent="1" source="bbzpcZMjXYRwJVZqYpki-38" target="bbzpcZMjXYRwJVZqYpki-1" edge="1">
          <mxGeometry relative="1" as="geometry">
            <mxPoint x="730" y="220" as="sourcePoint" />
            <mxPoint x="746" y="180" as="targetPoint" />
          </mxGeometry>
        </mxCell>
        <mxCell id="bbzpcZMjXYRwJVZqYpki-43" value="출생년도" style="ellipse;whiteSpace=wrap;html=1;align=center;" parent="1" vertex="1">
          <mxGeometry x="880" y="110" width="100" height="40" as="geometry" />
        </mxCell>
        <mxCell id="bbzpcZMjXYRwJVZqYpki-44" value="" style="endArrow=none;html=1;rounded=0;" parent="1" source="bbzpcZMjXYRwJVZqYpki-43" target="bbzpcZMjXYRwJVZqYpki-1" edge="1">
          <mxGeometry relative="1" as="geometry">
            <mxPoint x="682" y="220" as="sourcePoint" />
            <mxPoint x="690" y="180" as="targetPoint" />
          </mxGeometry>
        </mxCell>
        <mxCell id="bbzpcZMjXYRwJVZqYpki-45" value="직종" style="ellipse;whiteSpace=wrap;html=1;align=center;" parent="1" vertex="1">
          <mxGeometry x="720" y="250" width="100" height="40" as="geometry" />
        </mxCell>
        <mxCell id="bbzpcZMjXYRwJVZqYpki-46" value="" style="endArrow=none;html=1;rounded=0;" parent="1" source="bbzpcZMjXYRwJVZqYpki-45" target="bbzpcZMjXYRwJVZqYpki-1" edge="1">
          <mxGeometry relative="1" as="geometry">
            <mxPoint x="612" y="199" as="sourcePoint" />
            <mxPoint x="670" y="183" as="targetPoint" />
          </mxGeometry>
        </mxCell>
        <mxCell id="bbzpcZMjXYRwJVZqYpki-47" value="직위" style="ellipse;whiteSpace=wrap;html=1;align=center;" parent="1" vertex="1">
          <mxGeometry x="480" y="170" width="100" height="40" as="geometry" />
        </mxCell>
        <mxCell id="bbzpcZMjXYRwJVZqYpki-48" value="관심 분야" style="ellipse;whiteSpace=wrap;html=1;align=center;" parent="1" vertex="1">
          <mxGeometry x="480" y="100" width="100" height="40" as="geometry" />
        </mxCell>
        <mxCell id="bbzpcZMjXYRwJVZqYpki-49" value="" style="endArrow=none;html=1;rounded=0;" parent="1" source="bbzpcZMjXYRwJVZqYpki-47" target="bbzpcZMjXYRwJVZqYpki-1" edge="1">
          <mxGeometry relative="1" as="geometry">
            <mxPoint x="584" y="200" as="sourcePoint" />
            <mxPoint x="670" y="181" as="targetPoint" />
          </mxGeometry>
        </mxCell>
        <mxCell id="bbzpcZMjXYRwJVZqYpki-50" value="" style="endArrow=none;html=1;rounded=0;" parent="1" source="bbzpcZMjXYRwJVZqYpki-48" target="bbzpcZMjXYRwJVZqYpki-1" edge="1">
          <mxGeometry relative="1" as="geometry">
            <mxPoint x="555.0802126497501" y="134.2513363889609" as="sourcePoint" />
            <mxPoint x="670" y="170" as="targetPoint" />
          </mxGeometry>
        </mxCell>
        <mxCell id="bbzpcZMjXYRwJVZqYpki-56" value="" style="endArrow=none;html=1;rounded=0;" parent="1" source="8LDzbmYmtfxuhefucSMn-6" target="bbzpcZMjXYRwJVZqYpki-20" edge="1">
          <mxGeometry relative="1" as="geometry">
            <mxPoint x="198" y="269" as="sourcePoint" />
            <mxPoint x="144" y="299" as="targetPoint" />
          </mxGeometry>
        </mxCell>
        <mxCell id="bbzpcZMjXYRwJVZqYpki-59" value="" style="endArrow=none;html=1;rounded=0;entryX=0;entryY=0.5;entryDx=0;entryDy=0;" parent="1" source="NyH2NcSwAPmrtW-ZyGsx-1" target="bbzpcZMjXYRwJVZqYpki-1" edge="1">
          <mxGeometry relative="1" as="geometry">
            <mxPoint x="161.12233306521853" y="254.34675555891386" as="sourcePoint" />
            <mxPoint x="330" y="175" as="targetPoint" />
          </mxGeometry>
        </mxCell>
        <mxCell id="8LDzbmYmtfxuhefucSMn-74" value="N" style="edgeLabel;html=1;align=center;verticalAlign=middle;resizable=0;points=[];" parent="bbzpcZMjXYRwJVZqYpki-59" vertex="1" connectable="0">
          <mxGeometry x="-0.6127" y="1" relative="1" as="geometry">
            <mxPoint x="-23" y="-9" as="offset" />
          </mxGeometry>
        </mxCell>
        <mxCell id="bbzpcZMjXYRwJVZqYpki-65" value="" style="endArrow=none;html=1;rounded=0;" parent="1" source="NyH2NcSwAPmrtW-ZyGsx-1" target="bbzpcZMjXYRwJVZqYpki-20" edge="1">
          <mxGeometry relative="1" as="geometry">
            <mxPoint x="120" y="500" as="sourcePoint" />
            <mxPoint x="111" y="400" as="targetPoint" />
          </mxGeometry>
        </mxCell>
        <mxCell id="8LDzbmYmtfxuhefucSMn-75" value="M" style="edgeLabel;html=1;align=center;verticalAlign=middle;resizable=0;points=[];" parent="bbzpcZMjXYRwJVZqYpki-65" vertex="1" connectable="0">
          <mxGeometry x="-0.4357" y="-2" relative="1" as="geometry">
            <mxPoint x="3" y="-8" as="offset" />
          </mxGeometry>
        </mxCell>
        <mxCell id="NyH2NcSwAPmrtW-ZyGsx-1" value="동의" style="shape=rhombus;perimeter=rhombusPerimeter;whiteSpace=wrap;html=1;align=center;" parent="1" vertex="1">
          <mxGeometry x="308" y="130" width="120" height="60" as="geometry" />
        </mxCell>
        <mxCell id="8LDzbmYmtfxuhefucSMn-1" value="동의 코드" style="ellipse;whiteSpace=wrap;html=1;align=center;fontStyle=4;" parent="1" vertex="1">
          <mxGeometry x="400" y="50" width="100" height="40" as="geometry" />
        </mxCell>
        <mxCell id="8LDzbmYmtfxuhefucSMn-5" value="약관 명" style="ellipse;whiteSpace=wrap;html=1;align=center;" parent="1" vertex="1">
          <mxGeometry x="160" y="200" width="100" height="40" as="geometry" />
        </mxCell>
        <mxCell id="8LDzbmYmtfxuhefucSMn-6" value="약관 내용" style="ellipse;whiteSpace=wrap;html=1;align=center;" parent="1" vertex="1">
          <mxGeometry x="38" y="200" width="100" height="40" as="geometry" />
        </mxCell>
        <mxCell id="8LDzbmYmtfxuhefucSMn-7" value="동의여부" style="ellipse;whiteSpace=wrap;html=1;align=center;" parent="1" vertex="1">
          <mxGeometry x="280" y="50" width="100" height="40" as="geometry" />
        </mxCell>
        <mxCell id="8LDzbmYmtfxuhefucSMn-8" value="" style="endArrow=none;html=1;rounded=0;entryX=0.5;entryY=0;entryDx=0;entryDy=0;" parent="1" source="8LDzbmYmtfxuhefucSMn-1" target="NyH2NcSwAPmrtW-ZyGsx-1" edge="1">
          <mxGeometry relative="1" as="geometry">
            <mxPoint x="338" y="132" as="sourcePoint" />
            <mxPoint x="396" y="80" as="targetPoint" />
          </mxGeometry>
        </mxCell>
        <mxCell id="8LDzbmYmtfxuhefucSMn-10" value="" style="endArrow=none;html=1;rounded=0;entryX=0.5;entryY=0;entryDx=0;entryDy=0;" parent="1" source="8LDzbmYmtfxuhefucSMn-7" target="NyH2NcSwAPmrtW-ZyGsx-1" edge="1">
          <mxGeometry relative="1" as="geometry">
            <mxPoint x="272" y="222" as="sourcePoint" />
            <mxPoint x="181" y="205" as="targetPoint" />
          </mxGeometry>
        </mxCell>
        <mxCell id="8LDzbmYmtfxuhefucSMn-15" value="보기" style="whiteSpace=wrap;html=1;align=center;" parent="1" vertex="1">
          <mxGeometry x="1472" y="140" width="100" height="40" as="geometry" />
        </mxCell>
        <mxCell id="8LDzbmYmtfxuhefucSMn-16" value="보기 코드" style="ellipse;whiteSpace=wrap;html=1;align=center;fontStyle=4;" parent="1" vertex="1">
          <mxGeometry x="1472" y="60" width="100" height="40" as="geometry" />
        </mxCell>
        <mxCell id="8LDzbmYmtfxuhefucSMn-18" value="보기 항목" style="ellipse;whiteSpace=wrap;html=1;align=center;" parent="1" vertex="1">
          <mxGeometry x="1472" y="220" width="100" height="40" as="geometry" />
        </mxCell>
        <mxCell id="8LDzbmYmtfxuhefucSMn-19" value="" style="endArrow=none;html=1;rounded=0;" parent="1" source="8LDzbmYmtfxuhefucSMn-16" target="8LDzbmYmtfxuhefucSMn-15" edge="1">
          <mxGeometry relative="1" as="geometry">
            <mxPoint x="1251.5" y="579.77" as="sourcePoint" />
            <mxPoint x="1303" y="439" as="targetPoint" />
          </mxGeometry>
        </mxCell>
        <mxCell id="8LDzbmYmtfxuhefucSMn-20" value="" style="endArrow=none;html=1;rounded=0;" parent="1" source="8LDzbmYmtfxuhefucSMn-18" target="8LDzbmYmtfxuhefucSMn-15" edge="1">
          <mxGeometry relative="1" as="geometry">
            <mxPoint x="1263.5" y="549.77" as="sourcePoint" />
            <mxPoint x="1353" y="459" as="targetPoint" />
          </mxGeometry>
        </mxCell>
        <mxCell id="8LDzbmYmtfxuhefucSMn-24" value="" style="endArrow=none;html=1;rounded=0;" parent="1" source="8LDzbmYmtfxuhefucSMn-68" target="8LDzbmYmtfxuhefucSMn-15" edge="1">
          <mxGeometry relative="1" as="geometry">
            <mxPoint x="1385" y="559" as="sourcePoint" />
            <mxPoint x="1305" y="589" as="targetPoint" />
          </mxGeometry>
        </mxCell>
        <mxCell id="8LDzbmYmtfxuhefucSMn-70" value="N" style="edgeLabel;html=1;align=center;verticalAlign=middle;resizable=0;points=[];" parent="8LDzbmYmtfxuhefucSMn-24" vertex="1" connectable="0">
          <mxGeometry x="-0.0222" y="2" relative="1" as="geometry">
            <mxPoint x="-3" y="23" as="offset" />
          </mxGeometry>
        </mxCell>
        <mxCell id="8LDzbmYmtfxuhefucSMn-28" value="제목" style="whiteSpace=wrap;html=1;align=center;" parent="1" vertex="1">
          <mxGeometry x="1157" y="270" width="100" height="40" as="geometry" />
        </mxCell>
        <mxCell id="8LDzbmYmtfxuhefucSMn-29" value="" style="endArrow=none;html=1;rounded=0;" parent="1" source="8LDzbmYmtfxuhefucSMn-33" target="8LDzbmYmtfxuhefucSMn-28" edge="1">
          <mxGeometry relative="1" as="geometry">
            <mxPoint x="1100" y="329" as="sourcePoint" />
            <mxPoint x="1210" y="389" as="targetPoint" />
          </mxGeometry>
        </mxCell>
        <mxCell id="8LDzbmYmtfxuhefucSMn-30" value="제목 코드" style="ellipse;whiteSpace=wrap;html=1;align=center;fontStyle=4;" parent="1" vertex="1">
          <mxGeometry x="1060" y="320" width="100" height="40" as="geometry" />
        </mxCell>
        <mxCell id="8LDzbmYmtfxuhefucSMn-31" value="" style="endArrow=none;html=1;rounded=0;" parent="1" source="8LDzbmYmtfxuhefucSMn-30" target="8LDzbmYmtfxuhefucSMn-28" edge="1">
          <mxGeometry relative="1" as="geometry">
            <mxPoint x="1184" y="417" as="sourcePoint" />
            <mxPoint x="1185" y="411.7241379310344" as="targetPoint" />
          </mxGeometry>
        </mxCell>
        <mxCell id="8LDzbmYmtfxuhefucSMn-32" value="" style="endArrow=none;html=1;rounded=0;" parent="1" source="8LDzbmYmtfxuhefucSMn-34" target="8LDzbmYmtfxuhefucSMn-28" edge="1">
          <mxGeometry relative="1" as="geometry">
            <mxPoint x="1190" y="464.83000000000004" as="sourcePoint" />
            <mxPoint x="1266.5505617977528" y="430" as="targetPoint" />
          </mxGeometry>
        </mxCell>
        <mxCell id="8LDzbmYmtfxuhefucSMn-33" value="필수 여부" style="ellipse;whiteSpace=wrap;html=1;align=center;" parent="1" vertex="1">
          <mxGeometry x="1292" y="310" width="100" height="40" as="geometry" />
        </mxCell>
        <mxCell id="8LDzbmYmtfxuhefucSMn-34" value="복수형 여부" style="ellipse;whiteSpace=wrap;html=1;align=center;" parent="1" vertex="1">
          <mxGeometry x="1230" y="360" width="100" height="40" as="geometry" />
        </mxCell>
        <mxCell id="8LDzbmYmtfxuhefucSMn-56" value="" style="endArrow=none;html=1;rounded=0;" parent="1" source="8LDzbmYmtfxuhefucSMn-96" target="bbzpcZMjXYRwJVZqYpki-1" edge="1">
          <mxGeometry relative="1" as="geometry">
            <mxPoint x="921.181818181818" y="266.909090909091" as="sourcePoint" />
            <mxPoint x="625" y="190" as="targetPoint" />
          </mxGeometry>
        </mxCell>
        <mxCell id="8LDzbmYmtfxuhefucSMn-90" value="N" style="edgeLabel;html=1;align=center;verticalAlign=middle;resizable=0;points=[];" parent="8LDzbmYmtfxuhefucSMn-56" vertex="1" connectable="0">
          <mxGeometry x="-0.7626" y="-1" relative="1" as="geometry">
            <mxPoint x="179" y="-9" as="offset" />
          </mxGeometry>
        </mxCell>
        <mxCell id="L_MzMhsjJ9_mvxcdoN2l-17" value="M" style="edgeLabel;html=1;align=center;verticalAlign=middle;resizable=0;points=[];" vertex="1" connectable="0" parent="8LDzbmYmtfxuhefucSMn-56">
          <mxGeometry x="-0.899" y="-3" relative="1" as="geometry">
            <mxPoint y="-7" as="offset" />
          </mxGeometry>
        </mxCell>
        <mxCell id="L_MzMhsjJ9_mvxcdoN2l-20" value="M" style="edgeLabel;html=1;align=center;verticalAlign=middle;resizable=0;points=[];" vertex="1" connectable="0" parent="8LDzbmYmtfxuhefucSMn-56">
          <mxGeometry x="-0.8097" relative="1" as="geometry">
            <mxPoint x="20" y="20" as="offset" />
          </mxGeometry>
        </mxCell>
        <mxCell id="8LDzbmYmtfxuhefucSMn-57" value="" style="endArrow=none;html=1;rounded=0;" parent="1" source="8LDzbmYmtfxuhefucSMn-58" target="8LDzbmYmtfxuhefucSMn-15" edge="1">
          <mxGeometry relative="1" as="geometry">
            <mxPoint x="1473" y="489" as="sourcePoint" />
            <mxPoint x="1403" y="449" as="targetPoint" />
          </mxGeometry>
        </mxCell>
        <mxCell id="8LDzbmYmtfxuhefucSMn-58" value="기타 여부" style="ellipse;whiteSpace=wrap;html=1;align=center;" parent="1" vertex="1">
          <mxGeometry x="1592" y="140" width="100" height="40" as="geometry" />
        </mxCell>
        <mxCell id="8LDzbmYmtfxuhefucSMn-59" value="제목 내용" style="ellipse;whiteSpace=wrap;html=1;align=center;" parent="1" vertex="1">
          <mxGeometry x="1122" y="360" width="100" height="40" as="geometry" />
        </mxCell>
        <mxCell id="8LDzbmYmtfxuhefucSMn-60" value="" style="endArrow=none;html=1;rounded=0;exitX=0.607;exitY=-0.011;exitDx=0;exitDy=0;exitPerimeter=0;" parent="1" source="8LDzbmYmtfxuhefucSMn-59" target="8LDzbmYmtfxuhefucSMn-28" edge="1">
          <mxGeometry relative="1" as="geometry">
            <mxPoint x="1153.361480780255" y="380.5231758052778" as="sourcePoint" />
            <mxPoint x="1257" y="421.1111111111111" as="targetPoint" />
          </mxGeometry>
        </mxCell>
        <mxCell id="8LDzbmYmtfxuhefucSMn-69" value="" style="endArrow=none;html=1;rounded=0;" parent="1" source="8LDzbmYmtfxuhefucSMn-28" target="8LDzbmYmtfxuhefucSMn-68" edge="1">
          <mxGeometry relative="1" as="geometry">
            <mxPoint x="1020" y="459" as="sourcePoint" />
            <mxPoint x="1020" y="609" as="targetPoint" />
          </mxGeometry>
        </mxCell>
        <mxCell id="8LDzbmYmtfxuhefucSMn-71" value="1" style="edgeLabel;html=1;align=center;verticalAlign=middle;resizable=0;points=[];" parent="8LDzbmYmtfxuhefucSMn-69" vertex="1" connectable="0">
          <mxGeometry x="-0.5778" y="-2" relative="1" as="geometry">
            <mxPoint x="64" y="-21" as="offset" />
          </mxGeometry>
        </mxCell>
        <mxCell id="L_MzMhsjJ9_mvxcdoN2l-18" value="1" style="edgeLabel;html=1;align=center;verticalAlign=middle;resizable=0;points=[];" vertex="1" connectable="0" parent="8LDzbmYmtfxuhefucSMn-69">
          <mxGeometry x="-0.1742" y="1" relative="1" as="geometry">
            <mxPoint x="35" y="1" as="offset" />
          </mxGeometry>
        </mxCell>
        <mxCell id="8LDzbmYmtfxuhefucSMn-68" value="항목" style="shape=rhombus;perimeter=rhombusPerimeter;whiteSpace=wrap;html=1;align=center;" parent="1" vertex="1">
          <mxGeometry x="1300" y="202" width="120" height="60" as="geometry" />
        </mxCell>
        <mxCell id="8LDzbmYmtfxuhefucSMn-93" value="" style="endArrow=none;html=1;rounded=0;" parent="1" source="L_MzMhsjJ9_mvxcdoN2l-3" target="8LDzbmYmtfxuhefucSMn-96" edge="1">
          <mxGeometry relative="1" as="geometry">
            <mxPoint x="1070.1455206038347" y="233.77443213654306" as="sourcePoint" />
            <mxPoint x="1295" y="191" as="targetPoint" />
          </mxGeometry>
        </mxCell>
        <mxCell id="8LDzbmYmtfxuhefucSMn-96" value="답변" style="shape=rhombus;perimeter=rhombusPerimeter;whiteSpace=wrap;html=1;align=center;" parent="1" vertex="1">
          <mxGeometry x="1147" y="130" width="120" height="60" as="geometry" />
        </mxCell>
        <mxCell id="8LDzbmYmtfxuhefucSMn-99" value="" style="endArrow=none;html=1;rounded=0;" parent="1" source="8LDzbmYmtfxuhefucSMn-96" target="8LDzbmYmtfxuhefucSMn-15" edge="1">
          <mxGeometry relative="1" as="geometry">
            <mxPoint x="1179" y="334" as="sourcePoint" />
            <mxPoint x="1124" y="218" as="targetPoint" />
          </mxGeometry>
        </mxCell>
        <mxCell id="L_MzMhsjJ9_mvxcdoN2l-22" value="M" style="edgeLabel;html=1;align=center;verticalAlign=middle;resizable=0;points=[];" vertex="1" connectable="0" parent="8LDzbmYmtfxuhefucSMn-99">
          <mxGeometry x="-0.7657" y="-2" relative="1" as="geometry">
            <mxPoint x="-34" y="18" as="offset" />
          </mxGeometry>
        </mxCell>
        <mxCell id="L_MzMhsjJ9_mvxcdoN2l-1" value="필수 여부" style="ellipse;whiteSpace=wrap;html=1;align=center;" vertex="1" parent="1">
          <mxGeometry x="30" y="90" width="100" height="40" as="geometry" />
        </mxCell>
        <mxCell id="L_MzMhsjJ9_mvxcdoN2l-2" value="" style="endArrow=none;html=1;rounded=0;" edge="1" parent="1" source="L_MzMhsjJ9_mvxcdoN2l-1" target="bbzpcZMjXYRwJVZqYpki-20">
          <mxGeometry relative="1" as="geometry">
            <mxPoint x="231" y="289" as="sourcePoint" />
            <mxPoint x="216" y="249" as="targetPoint" />
          </mxGeometry>
        </mxCell>
        <mxCell id="L_MzMhsjJ9_mvxcdoN2l-3" value="답변 코드" style="ellipse;whiteSpace=wrap;html=1;align=center;fontStyle=4;" vertex="1" parent="1">
          <mxGeometry x="1147" y="60" width="100" height="40" as="geometry" />
        </mxCell>
        <mxCell id="L_MzMhsjJ9_mvxcdoN2l-6" value="" style="endArrow=none;html=1;rounded=0;exitX=0.5;exitY=0;exitDx=0;exitDy=0;" edge="1" parent="1" source="8LDzbmYmtfxuhefucSMn-28" target="8LDzbmYmtfxuhefucSMn-96">
          <mxGeometry relative="1" as="geometry">
            <mxPoint x="1056" y="292" as="sourcePoint" />
            <mxPoint x="1141" y="325" as="targetPoint" />
          </mxGeometry>
        </mxCell>
        <mxCell id="L_MzMhsjJ9_mvxcdoN2l-19" value="N" style="edgeLabel;html=1;align=center;verticalAlign=middle;resizable=0;points=[];" vertex="1" connectable="0" parent="L_MzMhsjJ9_mvxcdoN2l-6">
          <mxGeometry x="-0.4687" y="2" relative="1" as="geometry">
            <mxPoint x="-25" y="-49" as="offset" />
          </mxGeometry>
        </mxCell>
        <mxCell id="L_MzMhsjJ9_mvxcdoN2l-21" value="N" style="edgeLabel;html=1;align=center;verticalAlign=middle;resizable=0;points=[];" vertex="1" connectable="0" parent="L_MzMhsjJ9_mvxcdoN2l-6">
          <mxGeometry x="-0.1979" y="-1" relative="1" as="geometry">
            <mxPoint x="12" y="-38" as="offset" />
          </mxGeometry>
        </mxCell>
        <mxCell id="L_MzMhsjJ9_mvxcdoN2l-7" value="답변내용" style="ellipse;whiteSpace=wrap;html=1;align=center;" vertex="1" parent="1">
          <mxGeometry x="1252" y="70" width="100" height="40" as="geometry" />
        </mxCell>
        <mxCell id="L_MzMhsjJ9_mvxcdoN2l-8" value="" style="endArrow=none;html=1;rounded=0;entryX=1;entryY=0;entryDx=0;entryDy=0;" edge="1" parent="1" source="L_MzMhsjJ9_mvxcdoN2l-7" target="8LDzbmYmtfxuhefucSMn-96">
          <mxGeometry relative="1" as="geometry">
            <mxPoint x="1346" y="195" as="sourcePoint" />
            <mxPoint x="1295" y="191" as="targetPoint" />
          </mxGeometry>
        </mxCell>
      </root>
    </mxGraphModel>
  </diagram>
  <diagram id="BljMs6ohN4SrVddhDajM" name="페이지-2">
    <mxGraphModel grid="1" page="1" gridSize="10" guides="1" tooltips="1" connect="1" arrows="1" fold="1" pageScale="1" pageWidth="850" pageHeight="1100" math="0" shadow="0">
      <root>
        <mxCell id="0" />
        <mxCell id="1" parent="0" />
      </root>
    </mxGraphModel>
  </diagram>
</mxfile>
